<?xml version="1.0" encoding="utf-8"?>
<!-- Generator: Adobe Illustrator 25.2.0, SVG Export Plug-In . SVG Version: 6.00 Build 0)  -->
<svg version="1.1" id="Layer_1" xmlns="http://www.w3.org/2000/svg" xmlns:xlink="http://www.w3.org/1999/xlink" x="0px" y="0px"
	 viewBox="0 0 312.4 200" style="enable-background:new 0 0 312.4 200;" xml:space="preserve">
<style type="text/css">
	.st0{fill:#E9E9E9;}
	.st1{fill:none;stroke:#E9E9E9;stroke-width:16;stroke-miterlimit:10;}
</style>
<g>
	<path class="st0" d="M50.9,79.6c-0.2-9,6.1-16.4,15-18.8c0.8-0.2,1.5-0.5,2.3-0.6c0.8-0.2,1.1-0.7,1.2-1.5
		c1.6-8.4,6.6-13.7,14.8-15.6c8.9-2,17.4,1.3,21.8,9.8c0.9,1.8,1.9,3.7,2,5.6c0.1,1.5,0.9,1.8,1.9,2c3.5,0.7,6.7,2.2,9.4,4.5
		c3.3,2.9,5.7,6.3,6.3,10.9c0.4,2.8,0.9,5.6,0.1,8.3c-2.3,8.1-7.3,13.4-15.8,15.1c-1.4,0.3-1.6,0.7-1.9,2.1
		c-1.6,7.3-7.1,13.8-15,15.5c-5.2,1.1-10,0.4-14.4-2.4c-4.6-3-8.2-6.9-9.1-12.6c-0.2-1.6-0.7-2.3-2.5-2.6c-8.7-1.8-14.2-7.9-16-16.4
		C50.7,81.7,50.9,80.6,50.9,79.6z M103.6,87.1c1,0,1.9,0,2.9,0c3-0.2,6.8-2.9,7.2-5.3c1-5.8-3.2-9.2-7.1-8.9c-1.5,0.1-3,0.1-4.5,0
		c-3.7-0.1-6.3-3-6.4-6.6c0-1.5,0.1-3,0-4.5c-0.2-4.5-3.1-7-8.1-6.9c-3.5,0.1-6.2,3.1-6.2,7.1c0,1-0.1,2,0,2.9
		c0.6,4.9-3.6,8.6-7.9,8c-1.3-0.2-2.6-0.1-4,0c-2.5,0.1-5.7,2.6-6.1,4.7c-1.2,5.9,3,9.2,7.2,9c1.2,0,2.5,0.1,3.7,0
		c3.8-0.4,7.5,3.3,7.1,7.1c-0.1,1.4,0,2.8,0,4.2c0.1,3.2,2.6,6.4,5.3,6.7c4.9,0.6,7.8-1.8,8.6-4.8c0.6-2.3,0.3-4.5,0.4-6.8
		c0-1.7,0.6-3,1.8-4.2C99.3,86.9,101.4,87.1,103.6,87.1z"/>
	<g>
		<g>
			<circle class="st0" cx="221.9" cy="52.9" r="12.5"/>
			<circle class="st0" cx="221.9" cy="106.8" r="12.5"/>
		</g>
		<g>
			<circle class="st0" cx="195" cy="79.8" r="12.5"/>
			<circle class="st0" cx="248.8" cy="79.8" r="12.5"/>
		</g>
	</g>
	<path class="st1" d="M156.5,137.4c-14.4-1-47.5,8.2-62.6,21.8c-15.1,13.7-46.3,36.1-60.8,32.2c-19.8-5.3-30.1-25-17.4-90.9
		C24.3,55.8,40,7,90.4,8.2c15.1,0.3,44.9,10.9,65.8,11.7C177,19.1,206.8,8.5,222,8.2c50.4-1.1,66.2,47.7,74.8,92.4
		c12.7,65.9,2.4,85.6-17.4,90.9c-14.5,3.9-45.7-18.5-60.8-32.2c-15.1-13.7-48.2-22.8-62.6-21.8H156.5z"/>
</g>
</svg>
