<?xml version="1.0" encoding="utf-8"?>
<!-- Generator: Adobe Illustrator 25.2.0, SVG Export Plug-In . SVG Version: 6.00 Build 0)  -->
<svg version="1.1" id="Layer_1" xmlns="http://www.w3.org/2000/svg" xmlns:xlink="http://www.w3.org/1999/xlink" x="0px" y="0px"
	 viewBox="0 0 200 200" style="enable-background:new 0 0 200 200;" xml:space="preserve">
<style type="text/css">
	.st0{fill:#E9E9E9;}
</style>
<g>
	<path class="st0" d="M184,0h-31c-4.4,0-8,3.6-8,8s3.6,8,8,8h19.7l-37.9,37.9c-3.1,3.1-3.1,8.2,0,11.3s8.2,3.1,11.3,0L184,27.3V47
		c0,4.4,3.6,8,8,8s8-3.6,8-8V16V0H184z"/>
	<path class="st0" d="M0,16v31c0,4.4,3.6,8,8,8s8-3.6,8-8V27.3l37.9,37.9c3.1,3.1,8.2,3.1,11.3,0s3.1-8.2,0-11.3L27.3,16H47
		c4.4,0,8-3.6,8-8s-3.6-8-8-8H16H0V16z"/>
	<path class="st0" d="M16,200h31c4.4,0,8-3.6,8-8s-3.6-8-8-8H27.3l37.9-37.9c3.1-3.1,3.1-8.2,0-11.3s-8.2-3.1-11.3,0L16,172.7V153
		c0-4.4-3.6-8-8-8s-8,3.6-8,8v31v16H16z"/>
	<path class="st0" d="M200,184v-31c0-4.4-3.6-8-8-8s-8,3.6-8,8v19.7l-37.9-37.9c-3.1-3.1-8.2-3.1-11.3,0s-3.1,8.2,0,11.3l37.9,37.9
		H153c-4.4,0-8,3.6-8,8s3.6,8,8,8h31h16V184z"/>
</g>
</svg>
