<?xml version="1.0" encoding="utf-8"?>
<!-- Generator: Adobe Illustrator 25.2.0, SVG Export Plug-In . SVG Version: 6.00 Build 0)  -->
<svg version="1.1" id="Layer_1" xmlns="http://www.w3.org/2000/svg" xmlns:xlink="http://www.w3.org/1999/xlink" x="0px" y="0px"
	 viewBox="0 0 200 200" style="enable-background:new 0 0 200 200;" xml:space="preserve">
<style type="text/css">
	.st0{fill:#E9E9E9;}
</style>
<g>
	<g>
		<path class="st0" d="M100,16c46.3,0,84,37.7,84,84s-37.7,84-84,84s-84-37.7-84-84S53.7,16,100,16 M100,0C44.8,0,0,44.8,0,100
			s44.8,100,100,100s100-44.8,100-100S155.2,0,100,0L100,0z"/>
	</g>
	<circle class="st0" cx="100" cy="59.6" r="8"/>
	<path class="st0" d="M100,147.2L100,147.2c-4.4,0-8-3.6-8-8v-54c0-4.4,3.6-8,8-8h0c4.4,0,8,3.6,8,8v54
		C108,143.6,104.4,147.2,100,147.2z"/>
</g>
</svg>
