<?xml version="1.0" encoding="utf-8"?>
<!-- Generator: Adobe Illustrator 25.2.0, SVG Export Plug-In . SVG Version: 6.00 Build 0)  -->
<svg version="1.1" id="Layer_1" xmlns="http://www.w3.org/2000/svg" xmlns:xlink="http://www.w3.org/1999/xlink" x="0px" y="0px"
	 viewBox="0 0 200 200" style="enable-background:new 0 0 200 200;" xml:space="preserve">
<style type="text/css">
	.st0{fill:#E9E9E9;}
</style>
<g>
	<path class="st0" d="M148.4,67.6h31c4.4,0,8-3.6,8-8s-3.6-8-8-8h-19.7l37.9-37.9c3.1-3.1,3.1-8.2,0-11.3s-8.2-3.1-11.3,0
		l-37.9,37.9V20.6c0-4.4-3.6-8-8-8s-8,3.6-8,8v31v16H148.4z"/>
	<path class="st0" d="M67.6,51.6v-31c0-4.4-3.6-8-8-8s-8,3.6-8,8v19.7L13.7,2.3c-3.1-3.1-8.2-3.1-11.3,0s-3.1,8.2,0,11.3l37.9,37.9
		H20.6c-4.4,0-8,3.6-8,8s3.6,8,8,8h31h16V51.6z"/>
	<path class="st0" d="M51.6,132.4h-31c-4.4,0-8,3.6-8,8s3.6,8,8,8h19.7L2.3,186.3c-3.1,3.1-3.1,8.2,0,11.3s8.2,3.1,11.3,0l37.9-37.9
		v19.7c0,4.4,3.6,8,8,8s8-3.6,8-8v-31v-16H51.6z"/>
	<path class="st0" d="M132.4,148.4v31c0,4.4,3.6,8,8,8s8-3.6,8-8v-19.7l37.9,37.9c3.1,3.1,8.2,3.1,11.3,0s3.1-8.2,0-11.3l-37.9-37.9
		h19.7c4.4,0,8-3.6,8-8s-3.6-8-8-8h-31h-16V148.4z"/>
</g>
</svg>
